<svg version="1.1" baseProfile="full" xmlns="http://www.w3.org/2000/svg" viewBox="0 0 200 265" width="200" height="265"> <g class="seat" transform="scale(-1, 1) translate(-200,0)"> <rect fill="rgb(164, 159, 112)" stroke="rgb(237, 237, 237)" stroke-width="1" stroke-miterlimit="4.8" x="0.6" y="0.6" width="105.4" height="66.9"/> <path fill="rgb(147, 147, 147)" stroke="rgb(235, 235, 235)" stroke-width="1.2" stroke-miterlimit="4.8" d="M103.4,91.6l96,6.5V0.6H99L103.4,91.6z"/> <path fill="rgb(147, 147, 147)" stroke="rgb(235, 235, 235)" stroke-width="1.2" stroke-miterlimit="4.8" d="M26.4,0.6l-2.6,66.9L0.6,80.1V0.6H26.4z"/> <rect fill="rgb(169, 169, 169)" stroke="rgb(235, 235, 235)" stroke-width="1.2" stroke-miterlimit="4.8" x="0.6" y="180.3" width="198.8" height="84.1"/> <path fill="rgb(169, 169, 169)" stroke="rgb(235, 235, 235)" stroke-width="1.2" stroke-miterlimit="4.8" d="M133.4,145l-0.6,35.7l66.6,9.8v-35.6c0,0-11.2-3.2-18-5C169.8,146.7,133.4,145,133.4,145z"/> <path fill="rgb(169, 169, 169)" stroke="rgb(235, 235, 235)" stroke-width="1.2" stroke-miterlimit="4.8" d="M7.5,245.6L1,184.1c-0.3-1.4-0.5-3-0.4-4.4L1,150.4c0-8.2,0.3-14.8,7.4-14.6H11c3,0.1,4.8,2.9,4.7,6.5v108.4h-3C10,250.7,7.8,248.4,7.5,245.6L7.5,245.6z"/> <path fill="rgb(169, 169, 169)" stroke="rgb(235, 235, 235)" stroke-width="1.2" stroke-miterlimit="4.8" d="M135.9,245.6l6.5-61.5c0.3-1.4,0.5-3,0.4-4.4l-0.4-29.2c0-8.2-0.3-14.8-7.4-14.6h-2.5c-3,0.1-4.8,2.9-4.7,6.5v108.4h3C133.4,250.7,135.6,248.4,135.9,245.6L135.9,245.6z"/> <path fill="rgb(164, 159, 112)" stroke="rgb(237, 237, 237)" stroke-width="1" stroke-miterlimit="4.8" d="M75.3,261.8c-1.3,0-2.5,0-3.9,0c-30.2-0.4-47.7-5.6-53.8-7.8c-1.2-0.4-2.2-1.6-2.2-2.8v-41.6h112v41.7c0,1.2-0.7,2.3-2.1,2.8C119.7,256.4,103.4,261.9,75.3,261.8z"/> <path fill="rgb(164, 159, 112)" stroke="rgb(237, 237, 237)" stroke-width="1" stroke-miterlimit="4.8" d="M15.5,209.7v-62.4c0-1.6,1.3-2.9,3.1-3.1c3.3-0.5,32.3-4.1,52.8-4.1c12.2,0,30,1.4,53,4.1c1.7,0.4,3,1.6,3,3.1v62.4L15.5,209.7L15.5,209.7z"/> <path fill="rgb(255, 255, 255)" stroke="rgb(235, 235, 235)" stroke-width="1.2" stroke-miterlimit="4.8" d="M98,228c-4-0.7-14.5-2.8-26.5-2.8S48.8,227.1,45,228c-1,0.1-1.7,0.8-1.7,1.8v4.3v0.6v4.3c0,0.8,0.7,1.6,1.7,1.8c4,0.7,14.5,2.8,26.5,2.8s22.7-1.9,26.5-2.8c1-0.1,1.7-0.8,1.7-1.8v-4.3v-0.6v-4.3C99.7,228.9,99.1,228.2,98,228z"/> </g> </svg>